<?xml version="1.0" standalone="no"?><!DOCTYPE svg PUBLIC "-//W3C//DTD SVG 1.1//EN" "http://www.w3.org/Graphics/SVG/1.1/DTD/svg11.dtd"><svg t="1628755059036" class="icon" viewBox="0 0 1024 1024" version="1.1" xmlns="http://www.w3.org/2000/svg" p-id="2772" width="15" height="15" xmlns:xlink="http://www.w3.org/1999/xlink"><defs><style type="text/css"></style></defs><path d="M512 166.6c190.5 0 345.4 154.9 345.4 345.4S702.5 857.4 512 857.4 166.6 702.5 166.6 512 321.5 166.6 512 166.6m0-81.3c-235.6 0-426.7 191-426.7 426.7s191 426.7 426.7 426.7 426.7-191 426.7-426.7S747.7 85.3 512 85.3" fill="#666666" p-id="2773"></path><path d="M512 256c29.5 0 53.3 23.9 53.3 53.3s-23.9 53.3-53.3 53.3c-29.5 0-53.3-23.9-53.3-53.3S482.5 256 512 256z m0 170.7c23.6 0 42.7 19.1 42.7 42.7v256c0 23.6-19.1 42.7-42.7 42.7s-42.7-19.1-42.7-42.7v-256c0-23.6 19.1-42.7 42.7-42.7z" fill="#00A2FF" p-id="2774"></path></svg>