<svg  xmlns="http://www.w3.org/2000/svg" viewBox="0 0 1200 1200"><path fill="currentColor" d="M1096.68,231.31l-2.32-18.06a22.49,22.49,0,0,0-22.77-19.61l-18.2.37c-164.16-6.8-342.68-137.44-394-177.7a9,9,0,0,0-14.54,7.11c0,25.11-.15,68.82-.2,89.47a22.2,22.2,0,0,0,9.66,18.4c40,27.38,194.85,125,342.78,145.62a21.83,21.83,0,0,1,18.76,20.7c2.83,63.8,2.71,177.48-23.25,297-46.87,215.77-133,348.93-291,461.58v-331c43-31,72.17-80.22,75.74-136.08,7-109.9-83.95-200.87-193.84-193.85l-.74.07V23.42a9,9,0,0,0-15-6.79l-56,50c-1.48,1.29-148,127.28-354.93,127.28-3.44,0-6.91,0-10.38-.1l-18.25-.37a22.49,22.49,0,0,0-22.78,19.67l-2.28,18.11c-.86,6.82-20.62,169.16,14.63,360,46.92,254,122.27,422.5,411.22,593.1a9.35,9.35,0,0,0,14.1-8v-80a22.42,22.42,0,0,0-12-19.72C222.64,911.91,180.91,522.28,184.63,299.22a22.09,22.09,0,0,1,20.31-21.67c127-10,229.06-57.88,292.37-96.31V423.71c-47.4,30.48-80,82.29-83.75,141.56-7,109.89,83.95,200.87,193.85,193.84q4.4-.29,8.73-.78v418.25a9,9,0,0,0,12.62,8.28l47.17-20.47c211.33-117.8,343.42-286.72,400.85-554.16C1119.4,411.71,1097.59,238.4,1096.68,231.31ZM584.08,702c-59.83-5.33-108-53.5-113.36-113.33A125.43,125.43,0,0,1,606.91,452.4c59.83,5.33,108,53.5,113.36,113.33A125.43,125.43,0,0,1,584.08,702Z"/></svg>